<svg xmlns="http://www.w3.org/2000/svg" xmlns:xlink="http://www.w3.org/1999/xlink" x="0" y="0" version="1.1" viewBox="0 0 500 500" xml:space="preserve" style="enable-background:new 0 0 500 500"><style type="text/css">.st0{fill:#e6cc43}.st1{fill:#c99542}.st2{fill:#fff;stroke:#fff;stroke-width:10;stroke-miterlimit:10}</style><g id="border"><g><rect width="369.091" height="236.973" x="65.455" y="154.319" class="st0"/><g><polygon points="66.62 154.319 66.777 154.319 66.62 154.281" class="st1"/><polygon points="176.718 108.707 77.845 108.707 66.777 154.319 176.718 154.319 176.718 154.281 176.875 154.319 187.944 108.707" class="st1"/></g></g><polygon points="176.875 154.32 176.718 154.32 176.718 154.281 176.875 154.32 187.944 108.707 176.718 108.707 77.845 108.707 66.777 154.32 66.62 154.281 66.62 154.32 65.455 154.32 65.455 391.293 434.545 391.293 434.545 154.32" class="st2"/></g><g xmlns:cc="http://creativecommons.org/ns#" xmlns:dc="http://purl.org/dc/elements/1.1/" xmlns:inkscape="http://www.inkscape.org/namespaces/inkscape" xmlns:rdf="http://www.w3.org/1999/02/22-rdf-syntax-ns#" xmlns:sodipodi="http://sodipodi.sourceforge.net/DTD/sodipodi-0.dtd" xmlns:svg="http://www.w3.org/2000/svg" id="object"><g><rect width="369.091" height="236.973" x="65.455" y="154.319" class="st0"/><polygon points="176.718 108.707 77.845 108.707 66.777 154.319 176.718 154.319 176.718 154.281 176.875 154.319 187.944 108.707" class="st1"/></g></g></svg>