<svg xmlns="http://www.w3.org/2000/svg" xmlns:xlink="http://www.w3.org/1999/xlink" x="0" y="0" version="1.1" viewBox="0 0 500 500" xml:space="preserve" style="enable-background:new 0 0 500 500"><style type="text/css">.st0{fill:#fff;stroke:#fff;stroke-width:10}.st1{fill:gray}.st2{fill:#f5fdff}.st3{fill:#696969}.st4{fill:#575eab}.st5{fill:#c9c9c9}.st6{fill:#525252}.st7{fill:#fff}.st8{fill:#9c9c9c}</style><g id="border"><rect width="407.273" height="299.745" x="46.363" y="100.127" class="st0"/></g><g xmlns:cc="http://creativecommons.org/ns#" xmlns:dc="http://purl.org/dc/elements/1.1/" xmlns:inkscape="http://www.inkscape.org/namespaces/inkscape" xmlns:rdf="http://www.w3.org/1999/02/22-rdf-syntax-ns#" xmlns:sodipodi="http://sodipodi.sourceforge.net/DTD/sodipodi-0.dtd" xmlns:svg="http://www.w3.org/2000/svg" id="object"><g><g><rect width="407.273" height="299.745" x="46.363" y="100.127" class="st1"/></g><g><rect width="278.064" height="251.168" x="156.437" y="148.704" class="st2"/></g><rect width="219.53" height="4.761" x="187.836" y="241.724" class="st3"/><rect width="219.53" height="4.761" x="187.836" y="261.664" class="st3"/><rect width="219.53" height="4.761" x="187.836" y="281.537" class="st3"/><rect width="219.53" height="4.761" x="187.836" y="301.143" class="st3"/><rect width="219.53" height="16.631" x="187.836" y="170.588" class="st4"/><rect width="84.886" height="4.761" x="322.245" y="203.492" class="st3"/><rect width="84.886" height="4.761" x="322.245" y="218.202" class="st3"/><rect width="219.53" height="4.761" x="187.836" y="319.288" class="st3"/><rect width="219.53" height="4.761" x="187.836" y="339.228" class="st3"/><rect width="219.53" height="4.761" x="187.836" y="359.101" class="st3"/><rect width="219.53" height="4.761" x="187.836" y="378.708" class="st3"/><g><rect width="83.448" height="288.228" x="50.983" y="105.886" class="st5"/></g><rect width="71.475" height="4.761" x="56.538" y="140.559" class="st6"/><rect width="71.475" height="4.761" x="56.538" y="153.932" class="st6"/><rect width="71.475" height="4.761" x="56.538" y="167.305" class="st6"/><rect width="71.475" height="11.745" x="56.538" y="120.202" class="st7"/><g><rect width="278.064" height="9.347" x="156.437" y="100.127" class="st8"/></g></g></g></svg>