<svg xmlns="http://www.w3.org/2000/svg" xmlns:xlink="http://www.w3.org/1999/xlink" x="0" y="0" version="1.1" viewBox="0 0 500 500" xml:space="preserve" style="enable-background:new 0 0 500 500"><style type="text/css">.st0{fill:#fff;stroke:#fff;stroke-width:10}.st1{fill:#fffbc7}.st2{fill:#ff852e}.st3{fill:#fad08f}.st4{fill:#aed689}.st5{fill:#73bc3f}.st6{fill:#696969}.st7{fill:#ffeae3}.st8{fill:#e7704a}</style><g id="border"><rect width="407.272" height="299.745" x="46.364" y="100.128" class="st0"/></g><g xmlns:cc="http://creativecommons.org/ns#" xmlns:dc="http://purl.org/dc/elements/1.1/" xmlns:inkscape="http://www.inkscape.org/namespaces/inkscape" xmlns:rdf="http://www.w3.org/1999/02/22-rdf-syntax-ns#" xmlns:sodipodi="http://sodipodi.sourceforge.net/DTD/sodipodi-0.dtd" xmlns:svg="http://www.w3.org/2000/svg" id="object"><g><g><rect width="407.273" height="231.325" x="46.364" y="168.548" class="st1"/></g><g><rect width="407.273" height="68.42" x="46.364" y="100.128" class="st2"/></g><g><rect width="163.719" height="177.566" x="78.13" y="194.153" class="st3"/></g><g><circle cx="347.552" cy="284.21" r="76.056" class="st4"/></g><g><path d="M347.552,283.968v-75.811c-20.906,0.065-39.825,8.566-53.536,22.275L347.552,283.968z" class="st5"/></g><rect width="127.066" height="7.108" x="96.593" y="217.488" class="st6"/><rect width="93.263" height="6.133" x="71.204" y="117.815" class="st7"/><rect width="351.401" height="13.176" x="72.208" y="136.593" class="st7"/><rect width="68.789" height="14.94" x="95.15" y="307.01" class="st8"/><rect width="127.066" height="7.108" x="96.593" y="247.257" class="st6"/><rect width="127.066" height="7.108" x="96.593" y="276.927" class="st6"/><rect width="49.133" height="7.108" x="174.39" y="310.15" class="st6"/><rect width="127.066" height="7.108" x="96.593" y="342.136" class="st6"/></g></g></svg>