<svg xmlns="http://www.w3.org/2000/svg" xmlns:xlink="http://www.w3.org/1999/xlink" x="0" y="0" version="1.1" viewBox="0 0 500 500" xml:space="preserve" style="enable-background:new 0 0 500 500"><style type="text/css">.st0{fill:#fff;stroke:#fff;stroke-width:10;stroke-miterlimit:10}.st1{fill:#f60000}.st2{fill:#ff4607}.st3{fill:#ff2907}.st4{fill:#ff7d20}.st5{fill:#ff6e07}.st6{fill:#ffd320}.st7{fill:#ffa620}.st8{fill:#eefb9e}</style><g id="border"><g><path d="M468.273,243.895l-59.627-60.365h-48.273l59.626,60.364c0.079,2.636-59.627,72.656-56.885,72.512 l48.274,0.001C411.388,316.407,468.351,246.531,468.273,243.895z" class="st0"/><path d="M289.191,183.531h-48.273 M144.37,183.531H96.097l59.626,60.364c0.079,2.636-59.627,72.656-56.885,72.512 l48.274,0.001c-0.066,0.003-0.085-0.046-0.08-0.123c-0.005,0.077,0.014,0.126,0.08,0.123l48.274,0.001 c-0.043,0.002-0.07-0.013-0.083-0.045c0.013,0.031,0.04,0.046,0.083,0.044l48.274,0.001c-0.043,0.002-0.07-0.013-0.083-0.045 c0.013,0.031,0.04,0.046,0.083,0.044l48.274,0.001c-0.043,0.002-0.07-0.013-0.083-0.045c0.013,0.031,0.04,0.046,0.083,0.044 l48.274,0.001c0,0,56.964-69.876,56.885-72.512l-59.627-60.365h-48.273 M192.643,183.531H144.37 M240.917,183.531h-48.273" class="st0"/><path d="M141.643,243.895l-59.627-60.365H33.743l59.626,60.364c0.079,2.636-59.627,72.656-56.885,72.512l48.274,0.001 C85.255,316.407,141.722,246.531,141.643,243.895z" class="st0"/></g></g><g xmlns:cc="http://creativecommons.org/ns#" xmlns:dc="http://purl.org/dc/elements/1.1/" xmlns:inkscape="http://www.inkscape.org/namespaces/inkscape" xmlns:rdf="http://www.w3.org/1999/02/22-rdf-syntax-ns#" xmlns:sodipodi="http://sodipodi.sourceforge.net/DTD/sodipodi-0.dtd" xmlns:svg="http://www.w3.org/2000/svg" id="object" inkscape:export-filename="C:\Users\acd-kimura-y\Desktop\譁ｭ励↑縺予png\user_male_blue.png" inkscape:export-xdpi="90" inkscape:export-ydpi="90" inkscape:version="0.91 r13725" sodipodi:docname="user_male_blue.svg"><path d="M408.646,183.531h-48.274v-0.001l59.627,60.365 c0.079,2.636-59.627,72.656-56.885,72.512l48.274,0.001c-2.742,0.144,56.964-69.876,56.885-72.512L408.646,183.531z" class="st1" inkscape:connector-curvature="0"/><path d="M291.933,316.407c-2.742,0.144,56.964-69.876,56.885-72.512l-59.627-60.365 h-48.274l0-0.001l59.627,60.365c0.079,2.636-59.627,72.656-56.885,72.512L291.933,316.407z" class="st2" inkscape:connector-curvature="0"/><path d="M340.206,316.407c-2.742,0.144,56.964-69.876,56.885-72.512l-59.627-60.365 h-48.274v-0.001l59.627,60.365c0.079,2.636-59.627,72.656-56.885,72.512L340.206,316.407z" class="st3" inkscape:connector-curvature="0"/><path d="M195.386,316.407c-2.742,0.144,56.964-69.876,56.885-72.512l-59.627-60.365 H144.37v-0.001l59.627,60.365c0.079,2.636-59.627,72.656-56.885,72.512L195.386,316.407z" class="st4" inkscape:connector-curvature="0"/><path d="M243.659,316.407c-2.742,0.144,56.964-69.876,56.885-72.512l-59.627-60.365 h-48.274l0-0.001l59.627,60.365c0.079,2.636-59.627,72.656-56.885,72.512L243.659,316.407z" class="st5" inkscape:connector-curvature="0"/><path d="M84.759,316.407c-2.742,0.144,56.964-69.876,56.885-72.512l-59.627-60.365 H33.743l0-0.001l59.627,60.365c0.079,2.636-59.627,72.656-56.885,72.512L84.759,316.407z" class="st6" inkscape:connector-curvature="0"/><path d="M147.112,316.407c-2.742,0.144,56.964-69.876,56.885-72.512l-59.627-60.365 H96.096l0-0.001l59.627,60.365c0.079,2.636-59.627,72.656-56.885,72.512L147.112,316.407z" class="st7" inkscape:connector-curvature="0"/><circle cx="175.87" cy="212.966" r="16.068" class="st8"/><ellipse cx="229.837" cy="281.136" class="st8" rx="26.009" ry="26.009" transform="matrix(0.1602 -0.9871 0.9871 0.1602 -84.4842 462.9725)"/><circle cx="285.225" cy="220.067" r="15.358" class="st8"/><ellipse cx="75.745" cy="204.445" class="st8" rx="11.097" ry="11.097" transform="matrix(0.0161 -0.9999 0.9999 0.0161 -129.8942 276.8842)"/><circle cx="416.594" cy="279.006" r="11.097" class="st8"/></g></svg>