<svg xmlns="http://www.w3.org/2000/svg" xmlns:xlink="http://www.w3.org/1999/xlink" x="0" y="0" version="1.1" viewBox="0 0 500 500" xml:space="preserve" style="enable-background:new 0 0 500 500"><style type="text/css">.st0{fill:#fff;stroke:#fff;stroke-width:10}.st1{fill:#becdd1}.st2{fill:#f0fffa}.st3{fill:#dae8e3}.st4{stroke:#a8b3b0;stroke-miterlimit:10}.st4,.st5{fill:#fff}.st6{fill:#e85c35}.st7{fill:#823521}.st8{fill:#f2c877}.st9{fill:#7d7d7d}.st10{fill:#ff9f7d}</style><g id="border"><rect width="407.272" height="299.745" x="46.364" y="100.128" class="st0"/></g><g xmlns:cc="http://creativecommons.org/ns#" xmlns:dc="http://purl.org/dc/elements/1.1/" xmlns:inkscape="http://www.inkscape.org/namespaces/inkscape" xmlns:rdf="http://www.w3.org/1999/02/22-rdf-syntax-ns#" xmlns:sodipodi="http://sodipodi.sourceforge.net/DTD/sodipodi-0.dtd" xmlns:svg="http://www.w3.org/2000/svg" id="object"><g><rect width="407.273" height="299.745" x="46.364" y="100.128" class="st1"/><polygon points="146.687 139.024 146.687 106.636 52.085 106.636 52.085 139.024 52.085 396.156 447.915 396.156 447.915 139.024" class="st2"/><rect width="94.602" height="32.387" x="147.034" y="106.636" class="st3"/><path d="M425.486,169.032H154.03c-3.864,0-6.996-3.132-6.996-6.996v-9.096c0-3.864,3.132-6.996,6.996-6.996h271.456 c3.864,0,6.996,3.132,6.996,6.996v9.096C432.482,165.899,429.35,169.032,425.486,169.032z" class="st4"/><rect width="395.831" height="219.163" x="52.085" y="176.993" class="st5"/><rect width="259.48" height="98.314" x="59.33" y="217.283" class="st6"/><rect width="395.831" height="32.717" x="52.085" y="176.993" class="st7"/><rect width="107.263" height="178.874" x="325.268" y="217.283" class="st8"/><rect width="11.817" height="11.817" x="68.353" y="151.579" class="st9"/><rect width="11.817" height="11.817" x="89.58" y="151.579" class="st9"/><rect width="11.817" height="11.817" x="111.227" y="151.579" class="st9"/><rect width="259.48" height="63.899" x="59.33" y="325.254" class="st10"/></g></g></svg>