<svg xmlns="http://www.w3.org/2000/svg" xmlns:xlink="http://www.w3.org/1999/xlink" x="0" y="0" version="1.1" viewBox="0 0 500 500" xml:space="preserve" style="enable-background:new 0 0 500 500"><style type="text/css">.st0{fill:#fff;stroke:#fff;stroke-width:10;stroke-miterlimit:10}.st1{fill:#bf4b4b}.st2{fill:#ed4949}</style><g id="border"><path d="M427.4,405.4H395l-117-334.2c-0.3-1.8-0.9-3.4-1.7-4.9l0,0h0c-2.5-4.2-7-7.1-12.2-7.1h-15.9 c-5.2,0-9.8,2.8-12.2,7.1h0l0,0c-0.9,1.5-1.4,3.1-1.7,4.9l-117,334.2H72.6c-9.8,0-17.7,7.9-17.7,17.7c0,9.8,7.9,17.7,17.7,17.7 h354.8c9.8,0,17.7-7.9,17.7-17.7C445.1,413.3,437.2,405.4,427.4,405.4z" class="st0"/></g><g xmlns:cc="http://creativecommons.org/ns#" xmlns:dc="http://purl.org/dc/elements/1.1/" xmlns:inkscape="http://www.inkscape.org/namespaces/inkscape" xmlns:rdf="http://www.w3.org/1999/02/22-rdf-syntax-ns#" xmlns:sodipodi="http://sodipodi.sourceforge.net/DTD/sodipodi-0.dtd" xmlns:svg="http://www.w3.org/2000/svg" id="object"><g><path d="M427.4,405.4H73.1c-9.6,0-17.8,7.5-18.1,17.1c-0.3,10,7.7,18.3,17.7,18.3h354.4c9.6,0,17.8-7.5,18.1-17.1 C445.4,413.7,437.4,405.4,427.4,405.4z" class="st1"/><path d="M278.1,71.2c-0.3-1.8-0.9-3.4-1.7-4.9l0,0h0c-2.5-4.2-7-7.1-12.2-7.1h-15.9c-5.2,0-9.8,2.8-12.2,7.1h0l0,0 c-0.9,1.5-1.4,3.1-1.7,4.9l-117,334.2h138.9H395L278.1,71.2z" class="st2"/></g></g></svg>