<svg xmlns="http://www.w3.org/2000/svg" xmlns:xlink="http://www.w3.org/1999/xlink" x="0" y="0" version="1.1" viewBox="0 0 500 500" xml:space="preserve" style="enable-background:new 0 0 500 500"><style type="text/css">.st0{fill:#fff;stroke:#fff;stroke-width:10;stroke-miterlimit:10}.st1{fill:#dbc491}.st2{fill:#b92900}.st3{fill:#785830}.st4{fill:#ccfffc}.st5{fill:#805f35}.st6{fill:#d6ae5c}</style><g id="border"><polygon points="453.2 255.6 250 82.9 46.8 255.6 71.7 276.7 96.6 255.5 96.6 329.8 96.6 381 96.6 417.1 403.4 417.1 403.4 381 403.4 329.8 403.4 255.5 428.3 276.7" class="st0"/></g><g xmlns:cc="http://creativecommons.org/ns#" xmlns:dc="http://purl.org/dc/elements/1.1/" xmlns:inkscape="http://www.inkscape.org/namespaces/inkscape" xmlns:rdf="http://www.w3.org/1999/02/22-rdf-syntax-ns#" xmlns:sodipodi="http://sodipodi.sourceforge.net/DTD/sodipodi-0.dtd" xmlns:svg="http://www.w3.org/2000/svg" id="object"><g><polygon points="250 125.2 96.6 255.5 96.6 329.8 96.6 381 96.6 417.1 403.4 417.1 403.4 381 403.4 329.8 403.4 255.5" class="st1"/><polygon points="250 125.2 428.3 276.7 453.2 255.6 250 82.9 46.8 255.6 71.7 276.7" class="st2"/><path d="M279.8,268.7v73.6h92v-73.6H279.8z M359.4,301.3H330v-20h29.4V301.3z M321.5,281.3v20h-29.4v-20H321.5z M292.2,309.8h29.4v22.1h-29.4V309.8z M330,331.9v-22.1h29.4v22.1H330z" class="st3"/><g><rect width="29.4" height="22.1" x="330" y="309.8" class="st4"/><rect width="29.4" height="20" x="292.2" y="281.3" class="st4"/><rect width="29.4" height="22.1" x="292.2" y="309.8" class="st4"/><rect width="29.4" height="20" x="330" y="281.3" class="st4"/></g><rect width="102.2" height="167" x="140" y="248.6" class="st5"/><circle cx="217.1" cy="326.5" r="9.2" class="st6"/></g></g></svg>