<svg xmlns="http://www.w3.org/2000/svg" xmlns:xlink="http://www.w3.org/1999/xlink" x="0" y="0" version="1.1" viewBox="0 0 500 500" xml:space="preserve" style="enable-background:new 0 0 500 500"><style type="text/css">.st0{fill:#fff;stroke:#fff;stroke-width:10;stroke-miterlimit:10}.st1{fill:#dadee5}.st2{fill:#a0c8df}.st3{fill:#83aeb9}.st4{fill:#e54747}.st5{fill:#97d8d3}.st6{fill:#494b4d}.st7{fill:#e26d6f}.st8{fill:#afcee1}</style><g id="border"><path d="M136.2,380.6h66h5.9h66h130.6v-253H292V5H117.9v123H5v252.6H136.2" class="st0"/></g><g id="object"><g><path d="M181.3,437.8H50.2V185.2h112.9v-123h174.1v122.6h112.7v253H319.1c0.1-23.3,0.1-46.7,0.2-70h13.6v-12.1H166.8 v12.2h14.5L181.3,437.8z M203.5,111.9V142h31.7v30.9h30.1v-31h31.3V111h-31.5V80.2H235v31h-30.8L203.5,111.9z M93.9,257.4h53.9 v-39.1H93.9V257.4z M222.9,257.4h53.9v-39.1h-53.9V257.4z M406,218.2h-53.8v39.3h53.8L406,218.2z M147.9,331.6v-39.4H94v39.4 H147.9z M223,331.5h53.8v-39.2H223V331.5z M405.8,331.6v-39.3H352v39.3L405.8,331.6z" class="st1"/><path d="M181.3,437.8c0-23.3,0-46.6-0.1-69.9c1.2-0.4,2.4-0.7,3.7-0.8c19.6-0.1,39.1-0.1,58.7,0 c1.3,0.1,2.5,0.4,3.7,0.8v69.9L181.3,437.8z" class="st2"/><path d="M319.3,367.8c-0.1,23.3-0.1,46.7-0.2,70h-66c0.1-23.5,0.1-47.1,0.1-70.6h65l1.1,0.7L319.3,367.8z" class="st2"/><path d="M253.3,367.2c0,23.5-0.1,47.1-0.1,70.6h-5.9l-0.1-69.9L253.3,367.2z" class="st3"/><path d="M204.2,111.2h30.7v-31h30.2V111h31.5v30.9h-31.3v31h-30.1V142h-31.7v-30.1C203.8,111.7,204,111.4,204.2,111.2 z" class="st4"/><path d="M93.9,257.4v-39.1h53.9v39.1H93.9z" class="st5"/><path d="M222.9,257.4v-39.1h53.9v39.1H222.9z" class="st5"/><path d="M406,218.2v39.3h-53.8v-39.3H406z" class="st5"/><path d="M147.9,331.6H94v-39.4h53.8V331.6z" class="st5"/><path d="M223,331.5v-39.2h53.8v39.2H223z" class="st5"/><path d="M405.8,331.6H352v-39.3h53.8V331.6z" class="st5"/><path d="M253.3,367.2l-6,0.7c-1.2-0.4-2.4-0.6-3.7-0.8c-19.6,0-39.1,0-58.7,0c-1.3,0.1-2.5,0.4-3.7,0.8h-14.5v-12.2 h166.1v12.1h-13.6l0,0l-1.1-0.7L253.3,367.2z" class="st6"/><path d="M204.2,111.2c-0.2,0.3-0.5,0.5-0.8,0.8C203.8,111.7,204,111.4,204.2,111.2z" class="st7"/><path d="M318.3,367.1l1.1,0.7L318.3,367.1z" class="st8"/></g></g></svg>