<svg xmlns="http://www.w3.org/2000/svg" xmlns:xlink="http://www.w3.org/1999/xlink" x="0" y="0" version="1.1" viewBox="0 0 500 500" xml:space="preserve" style="enable-background:new 0 0 500 500"><style type="text/css">.st0{fill:#fff;stroke:#fff;stroke-width:10;stroke-miterlimit:10}.st1{fill:#d6d6d6}.st2{fill:#edfbff}.st3{fill:#686e6e}.st4{fill:none;stroke:#5c6161;stroke-width:5;stroke-miterlimit:10}.st5{fill:#71bcd9}</style><g id="border"><polygon points="250 47.673 153.795 115.085 153.795 246.033 58.087 246.033 58.087 452.327 441.913 452.327 441.913 246.033 345.213 246.033 345.213 115.085" class="st0"/></g><g xmlns:cc="http://creativecommons.org/ns#" xmlns:dc="http://purl.org/dc/elements/1.1/" xmlns:inkscape="http://www.inkscape.org/namespaces/inkscape" xmlns:rdf="http://www.w3.org/1999/02/22-rdf-syntax-ns#" xmlns:sodipodi="http://sodipodi.sourceforge.net/DTD/sodipodi-0.dtd" xmlns:svg="http://www.w3.org/2000/svg" id="object" inkscape:export-filename="C:\Users\acd-kimura-y\Desktop\譁ｭ励↑縺予png\user_male_blue.png" inkscape:export-xdpi="90" inkscape:export-ydpi="90" inkscape:version="0.91 r13725" sodipodi:docname="user_male_blue.svg"><g><polygon points="250 47.673 153.795 115.085 153.795 246.033 58.087 246.033 58.087 452.327 441.913 452.327 441.913 246.033 345.213 246.033 345.213 115.085" class="st1"/><circle cx="250" cy="159.44" r="54.923" class="st2"/><circle cx="250" cy="159.44" r="3.003" class="st3"/><line x1="249.504" x2="249.504" y1="159.44" y2="116.738" class="st4"/><line x1="252.083" x2="287.138" y1="159.44" y2="159.44" class="st4"/><rect width="51.934" height="51.934" x="101.861" y="276.941" class="st5"/><rect width="51.934" height="51.934" x="223.537" y="276.941" class="st5"/><rect width="51.934" height="51.934" x="345.213" y="276.941" class="st5"/><rect width="51.934" height="51.934" x="101.861" y="364.742" class="st5"/><rect width="51.934" height="51.934" x="223.537" y="364.742" class="st5"/><rect width="51.934" height="51.934" x="345.213" y="364.742" class="st5"/></g></g></svg>