<svg xmlns="http://www.w3.org/2000/svg" xmlns:xlink="http://www.w3.org/1999/xlink" x="0" y="0" version="1.1" viewBox="0 0 500 500" xml:space="preserve" style="enable-background:new 0 0 500 500"><style type="text/css">.st0{fill:#fff;stroke:#fff;stroke-width:10;stroke-miterlimit:10}.st1{fill:#f2f2a9}.st2{fill:#736450}.st3{fill:#ffead9}.st4{fill:#332c23}.st5{fill:#66665c}.st6{fill:#cc543d}.st7{fill:#bf9b52}.st8{fill:#997e5c}.st9{fill:#ccfffc}.st10{fill:#e65f45}.st11{fill:#fffae6}</style><g xmlns:cc="http://creativecommons.org/ns#" xmlns:dc="http://purl.org/dc/elements/1.1/" xmlns:inkscape="http://www.inkscape.org/namespaces/inkscape" xmlns:rdf="http://www.w3.org/1999/02/22-rdf-syntax-ns#" xmlns:sodipodi="http://sodipodi.sourceforge.net/DTD/sodipodi-0.dtd" xmlns:svg="http://www.w3.org/2000/svg" id="border"><path d="M471,182.3L437.7,74.8H62.3L29,182.3c3.6,8.7,9.6,15.5,16.8,18.9v224h29.6h118.1h260.6v-224 C461.4,197.8,467.4,191,471,182.3z" class="st0"/></g><g id="object"><g><rect width="408.3" height="248.3" x="45.8" y="176.9" class="st1"/><rect width="118.1" height="191" x="75.5" y="234.2" class="st2"/><rect width="64" height="43.7" x="102.5" y="315.3" class="st3"/><path d="M133.1,269.9l-26.4,45.5h52.8L133.1,269.9z M133.1,280.4l20.3,34.9h-40.5L133.1,280.4z" class="st4"/><rect width="26.5" height="2.5" x="109.8" y="326.9" class="st5"/><rect width="49.3" height="2.5" x="109.9" y="337.4" class="st5"/><rect width="46.5" height="2.5" x="109.8" y="347.8" class="st5"/><g><path d="M415.7,182.3c5.4,12.8,15.7,21.4,27.6,21.4c11.9,0,22.3-8.7,27.6-21.4H415.7z" class="st6"/><path d="M360.5,182.3c5.4,12.8,15.7,21.4,27.6,21.4s22.3-8.7,27.6-21.4H360.5z" class="st6"/><path d="M305.2,182.3c5.4,12.8,15.7,21.4,27.6,21.4c11.9,0,22.3-8.7,27.6-21.4H305.2z" class="st6"/><path d="M250,182.3c5.4,12.8,15.7,21.4,27.6,21.4s22.3-8.7,27.6-21.4H250z" class="st6"/><path d="M194.8,182.3c5.4,12.8,15.7,21.4,27.6,21.4c11.9,0,22.3-8.7,27.6-21.4H194.8z" class="st6"/><path d="M139.5,182.3c5.4,12.8,15.7,21.4,27.6,21.4c11.9,0,22.3-8.7,27.6-21.4H139.5z" class="st6"/><path d="M84.3,182.3c5.4,12.8,15.7,21.4,27.6,21.4s22.3-8.7,27.6-21.4H84.3z" class="st6"/><path d="M29,182.3c5.4,12.8,15.7,21.4,27.6,21.4s22.3-8.7,27.6-21.4H29z" class="st6"/></g><circle cx="178.7" cy="337.2" r="7.8" class="st7"/><path d="M237.7,226.2v143.9h179.9V226.2H237.7z M393.4,289.9H336v-39.2h57.4V289.9z M319.4,250.7v39.2H262v-39.2 H319.4z M262,306.5h57.4v43.3H262V306.5z M336,349.8v-43.3h57.4v43.3H336z" class="st8"/><g><rect width="57.4" height="43.3" x="336" y="306.5" class="st9"/><rect width="57.4" height="39.2" x="262" y="250.7" class="st9"/><rect width="57.4" height="43.3" x="262" y="306.5" class="st9"/><rect width="57.4" height="39.2" x="336" y="250.7" class="st9"/></g><polygon points="437.7 74.8 62.3 74.8 29 182.3 62.5 182.3 437.5 182.3 437.7 182.3 471 182.3" class="st10"/><polygon points="43.4 135.7 456.6 135.7 446.2 102.3 53.8 102.3" class="st11"/></g></g></svg>