<svg xmlns="http://www.w3.org/2000/svg" xmlns:xlink="http://www.w3.org/1999/xlink" x="0" y="0" version="1.1" viewBox="0 0 500 500" xml:space="preserve" style="enable-background:new 0 0 500 500"><style type="text/css">.st0{fill:#fff;stroke:#fff;stroke-width:10;stroke-miterlimit:10}.st1{fill:#0d0d0d}.st2{fill:#191919}.st3{fill:#303d3a}.st4{fill:#b7b7b7}</style><g id="border"><polygon points="288.868 128.062 47.764 165.198 47.764 241.686 152.866 371.938 452.236 274.388 452.236 189.378" class="st0"/></g><g xmlns:cc="http://creativecommons.org/ns#" xmlns:dc="http://purl.org/dc/elements/1.1/" xmlns:inkscape="http://www.inkscape.org/namespaces/inkscape" xmlns:rdf="http://www.w3.org/1999/02/22-rdf-syntax-ns#" xmlns:sodipodi="http://sodipodi.sourceforge.net/DTD/sodipodi-0.dtd" xmlns:svg="http://www.w3.org/2000/svg" id="object"><g><polygon points="47.764 165.198 152.866 261.432 452.236 189.378 288.868 128.062" class="st1"/><polygon points="152.866 261.432 152.866 371.938 452.236 274.388 452.236 189.378" class="st2"/><polygon points="47.764 165.198 152.866 261.432 152.866 371.938 47.764 241.686"/><polygon points="170.81 275.912 171.226 349.352 437.826 267.875 438.518 209.747" class="st3"/><path d="M192.357,289.838c0,3.603-2.356,6.512-5.266,6.512c-2.91,0-5.265-2.91-5.265-6.512 c0-3.672,2.356-6.582,5.265-6.582C190.001,283.256,192.357,286.166,192.357,289.838L192.357,289.838z" class="st4"/><path d="M191.318,309.514c0,3.603-2.356,6.582-5.266,6.582c-2.91,0-5.265-2.979-5.265-6.582 c0-3.603,2.356-6.582,5.265-6.582C188.962,302.932,191.318,305.911,191.318,309.514L191.318,309.514z" class="st4"/><path d="M191.318,328.29c0,3.603-2.356,6.582-5.266,6.582c-2.91,0-5.265-2.979-5.265-6.582 c0-3.603,2.356-6.582,5.265-6.582C188.962,321.708,191.318,324.687,191.318,328.29L191.318,328.29z" class="st4"/></g></g></svg>