<svg xmlns="http://www.w3.org/2000/svg" xmlns:xlink="http://www.w3.org/1999/xlink" x="0" y="0" version="1.1" viewBox="0 0 500 500" xml:space="preserve" style="enable-background:new 0 0 500 500"><style type="text/css">.st0{fill:#fff;stroke:#fff;stroke-width:10;stroke-miterlimit:10}.st1{fill:#916e5e}.st2{fill:#7d5f51}.st3{fill:#4d4d4d}.st4{fill:#8ecdfc}.st5{fill:#a8f1e5}</style><g id="border"><path d="M325.051,142.611h-42.081l-3.351-98.847h-59.237l-3.351,98.847h-42.081c-10.447,0-18.915,8.469-18.915,18.915 v176.948c0,10.447,8.469,18.915,18.915,18.915h42.081l3.351,98.847h59.237l3.351-98.847h42.081 c10.447,0,18.915-8.469,18.915-18.915V161.526C343.966,151.079,335.497,142.611,325.051,142.611z" class="st0"/></g><g xmlns:cc="http://creativecommons.org/ns#" xmlns:dc="http://purl.org/dc/elements/1.1/" xmlns:inkscape="http://www.inkscape.org/namespaces/inkscape" xmlns:rdf="http://www.w3.org/1999/02/22-rdf-syntax-ns#" xmlns:sodipodi="http://sodipodi.sourceforge.net/DTD/sodipodi-0.dtd" xmlns:svg="http://www.w3.org/2000/svg" id="object"><g><polygon points="279.618 43.764 220.381 43.764 213.39 250 220.381 456.236 279.618 456.236 286.61 250" class="st1"/><polygon points="213.39 250 220.381 456.236 279.619 456.236 286.61 250" class="st2"/><path d="M330.438,357.389H169.562c-7.471,0-13.527-6.056-13.527-13.527V156.138c0-7.471,6.056-13.527,13.527-13.527 h160.877c7.471,0,13.527,6.056,13.527,13.527v187.724C343.966,351.333,337.909,357.389,330.438,357.389z" class="st3"/><path d="M313.354,337.864H186.646c-7.471,0-13.527-6.056-13.527-13.527V175.663c0-7.471,6.056-13.527,13.527-13.527 h126.707c7.471,0,13.527,6.056,13.527,13.527v148.673C326.881,331.808,320.825,337.864,313.354,337.864z" class="st4"/><path d="M326.881,292.033V181.051c0-10.447-8.469-18.915-18.915-18.915H195.802L326.881,292.033z" class="st5"/></g></g></svg>