<svg xmlns="http://www.w3.org/2000/svg" xmlns:xlink="http://www.w3.org/1999/xlink" x="0" y="0" version="1.1" viewBox="0 0 500 500" xml:space="preserve" style="enable-background:new 0 0 500 500"><style type="text/css">.st0{fill:#fff;stroke:#fff;stroke-width:10;stroke-miterlimit:10}.st1{fill:#3e4142}.st2{fill:#747b7d}.st3{fill:#99a1a3}.st4{fill:#a0bdac}.st5{fill:gray}</style><g id="border"><path d="M384.6,419.3c0-0.5-0.1-0.9-0.2-1.4V54.8c0-7.5-60.2-13.6-134.5-13.6s-134.5,6.1-134.5,13.6v364.5h0.2 c0,0.8,0.1,1.5,0.4,2.2c-0.2,0.9-0.4,1.7-0.4,2.6c0,19.1,60.2,34.6,134.5,34.6s134.5-15.5,134.5-34.6c0-0.9-0.1-1.7-0.4-2.6 C384.5,420.8,384.6,420,384.6,419.3z" class="st0"/></g><g xmlns:cc="http://creativecommons.org/ns#" xmlns:dc="http://purl.org/dc/elements/1.1/" xmlns:inkscape="http://www.inkscape.org/namespaces/inkscape" xmlns:rdf="http://www.w3.org/1999/02/22-rdf-syntax-ns#" xmlns:sodipodi="http://sodipodi.sourceforge.net/DTD/sodipodi-0.dtd" xmlns:svg="http://www.w3.org/2000/svg" id="object"><g><ellipse cx="250.1" cy="424.1" class="st1" rx="134.5" ry="34.6"/><path d="M384.5,417.9V54.8c0,7.5-60.2,13.6-134.5,13.6c-74.3,0-134.5-6.1-134.5-13.6v364.5h0.2 c0,16.5,60.2,29.8,134.5,29.8s134.5-13.3,134.5-29.8C384.6,418.8,384.6,418.3,384.5,417.9z" class="st2"/><ellipse cx="249.9" cy="54.8" class="st3" rx="134.5" ry="13.6"/><ellipse cx="249.9" cy="60.5" class="st4" rx="5.9" ry="2"/><ellipse cx="229.9" cy="53.1" class="st4" rx="5.5" ry="1.5"/><ellipse cx="271" cy="53.1" class="st4" rx="5.5" ry="1.5"/><ellipse cx="250.1" cy="46.3" class="st4" rx="4.3" ry="1.1"/><rect width="35.3" height="35.3" x="232.3" y="90.6" class="st5" transform="matrix(0.7071 -0.7071 0.7071 0.7071 -3.2972 208.4103)"/><rect width="35.3" height="35.3" x="232.3" y="140.7" class="st5" transform="matrix(0.7071 -0.7071 0.7071 0.7071 -38.7461 223.0937)"/><rect width="35.3" height="35.3" x="232.3" y="192.2" class="st5" transform="matrix(0.7071 -0.7071 0.7071 0.7071 -75.1796 238.185)"/><rect width="35.3" height="35.3" x="232.3" y="242.3" class="st5" transform="matrix(0.7071 -0.7071 0.7071 0.7071 -110.6285 252.8684)"/><rect width="30" height="30" x="285" y="104.5" class="st5" transform="matrix(0.7071 -0.7071 0.7071 0.7071 3.4118 247.1623)"/><rect width="30" height="30" x="285" y="147.1" class="st5" transform="matrix(0.7071 -0.7071 0.7071 0.7071 -26.7696 259.6638)"/><rect width="30" height="30" x="285" y="191" class="st5" transform="matrix(0.7071 -0.7071 0.7071 0.7071 -57.7893 272.5127)"/><rect width="30" height="30" x="285" y="233.7" class="st5" transform="matrix(0.7071 -0.7071 0.7071 0.7071 -87.9707 285.0142)"/><rect width="30" height="30" x="184.8" y="104.5" class="st5" transform="matrix(-0.7071 -0.7071 0.7071 -0.7071 256.5945 345.2103)"/><rect width="30" height="30" x="184.8" y="147.1" class="st5" transform="matrix(-0.7071 -0.7071 0.7071 -0.7071 226.4131 418.0746)"/><rect width="30" height="30" x="184.8" y="191" class="st5" transform="matrix(-0.7071 -0.7071 0.7071 -0.7071 195.3933 492.963)"/><rect width="30" height="30" x="184.8" y="233.7" class="st5" transform="matrix(-0.7071 -0.7071 0.7071 -0.7071 165.2119 565.8273)"/></g></g></svg>