<svg xmlns="http://www.w3.org/2000/svg" xmlns:xlink="http://www.w3.org/1999/xlink" x="0" y="0" version="1.1" viewBox="0 0 500 500" xml:space="preserve" style="enable-background:new 0 0 500 500"><style type="text/css">.st0{fill:#fff;stroke:#fff;stroke-width:10;stroke-miterlimit:10}.st1{fill:#343434}.st2{fill:#8ecdfc}.st3{fill:#e9e9e9}.st4{fill:#a8f1e5}</style><g id="border"><path d="M352.268,41.873H147.661c-15.877,0-28.665,12.788-28.665,28.665v358.924c0,15.877,12.788,28.665,28.665,28.665 h204.607c15.877,0,28.737-12.788,28.737-28.665V70.538C381.005,54.66,368.145,41.873,352.268,41.873z" class="st0"/></g><g xmlns:cc="http://creativecommons.org/ns#" xmlns:dc="http://purl.org/dc/elements/1.1/" xmlns:inkscape="http://www.inkscape.org/namespaces/inkscape" xmlns:rdf="http://www.w3.org/1999/02/22-rdf-syntax-ns#" xmlns:sodipodi="http://sodipodi.sourceforge.net/DTD/sodipodi-0.dtd" xmlns:svg="http://www.w3.org/2000/svg" id="object"><g><path d="M147.66,41.873h204.607c15.877,0,28.737,12.788,28.737,28.665v358.924c0,15.877-12.86,28.665-28.737,28.665 H147.66c-15.877,0-28.665-12.788-28.665-28.665V70.538C118.995,54.66,131.783,41.873,147.66,41.873L147.66,41.873z" class="st1"/><path d="M154.629,79.23h190.67c12.572,0,22.702,10.13,22.702,22.702v284.568c0,12.644-10.13,22.774-22.702,22.774 h-190.67c-12.572,0-22.702-10.13-22.702-22.774V101.933C131.927,89.36,142.057,79.23,154.629,79.23L154.629,79.23z" class="st2"/><path d="M342.569,64.719c0,3.52-2.946,6.322-6.466,6.322c-3.592,0-6.538-2.802-6.538-6.322 c0-3.449,2.946-6.251,6.538-6.251C339.623,58.468,342.569,61.27,342.569,64.719L342.569,64.719z" class="st3"/><path d="M234.877,56.528h26.294c3.305,0,5.963,2.658,5.963,5.963c0,3.305-2.658,5.963-5.963,5.963h-26.294 c-3.305,0-5.963-2.658-5.963-5.963C228.914,59.187,231.572,56.528,234.877,56.528L234.877,56.528z" class="st3"/><path d="M181.067,59.833c0,2.011-1.509,3.735-3.448,3.735c-1.868,0-3.448-1.724-3.448-3.735 c0-2.084,1.581-3.736,3.448-3.736C179.559,56.097,181.067,57.75,181.067,59.833L181.067,59.833z" class="st3"/><path d="M156.282,79.23c-12.788,0-23.205,9.052-24.283,20.763l236.002,272.714V101.933 c0-12.572-10.848-22.702-24.355-22.702H156.282z" class="st4"/><path d="M262.249,430.755c0,6.466-5.388,11.639-12.07,11.639c-6.609,0-11.998-5.173-11.998-11.639 c0-6.394,5.388-11.638,11.998-11.638C256.861,419.117,262.249,424.362,262.249,430.755L262.249,430.755z" class="st3"/></g></g></svg>