<svg xmlns="http://www.w3.org/2000/svg" xmlns:xlink="http://www.w3.org/1999/xlink" x="0" y="0" version="1.1" viewBox="0 0 500 500" xml:space="preserve" style="enable-background:new 0 0 500 500"><style type="text/css">.st0{fill:#fff;stroke:#fff;stroke-width:10;stroke-miterlimit:10}.st1{fill:#0d0d0d}.st2{fill:#717171}</style><g id="border"><rect width="121.666" height="296.836" x="64.797" y="101.582" class="st0"/><rect width="121.666" height="296.836" x="189.167" y="101.582" class="st0"/><rect width="121.666" height="296.836" x="313.537" y="101.582" class="st0"/></g><g xmlns:cc="http://creativecommons.org/ns#" xmlns:dc="http://purl.org/dc/elements/1.1/" xmlns:inkscape="http://www.inkscape.org/namespaces/inkscape" xmlns:rdf="http://www.w3.org/1999/02/22-rdf-syntax-ns#" xmlns:sodipodi="http://sodipodi.sourceforge.net/DTD/sodipodi-0.dtd" xmlns:svg="http://www.w3.org/2000/svg" id="object"><g><rect width="121.666" height="296.836" x="64.797" y="101.582" class="st1"/><rect width="92.303" height="5.769" x="78.746" y="340.806" class="st2"/><rect width="92.303" height="5.769" x="78.746" y="351.128" class="st2"/><rect width="92.303" height="5.769" x="78.746" y="361.451" class="st2"/><rect width="92.303" height="5.769" x="78.746" y="309.838" class="st2"/><rect width="92.303" height="5.769" x="78.746" y="320.161" class="st2"/><rect width="92.303" height="5.769" x="78.746" y="330.483" class="st2"/><rect width="17.59" height="85.753" x="88.289" y="111.843" class="st2"/><rect width="17.59" height="85.753" x="115.83" y="111.843" class="st2"/><rect width="17.59" height="85.753" x="143.37" y="111.843" class="st2"/><rect width="121.666" height="296.836" x="189.167" y="101.582" class="st1"/><rect width="92.303" height="5.769" x="203.116" y="340.806" class="st2"/><rect width="92.303" height="5.769" x="203.116" y="351.128" class="st2"/><rect width="92.303" height="5.769" x="203.116" y="361.451" class="st2"/><rect width="92.303" height="5.769" x="203.116" y="309.838" class="st2"/><rect width="92.303" height="5.769" x="203.116" y="320.161" class="st2"/><rect width="92.303" height="5.769" x="203.116" y="330.483" class="st2"/><rect width="17.59" height="85.753" x="212.659" y="111.843" class="st2"/><rect width="17.59" height="85.753" x="240.199" y="111.843" class="st2"/><rect width="17.59" height="85.753" x="267.74" y="111.843" class="st2"/><rect width="121.666" height="296.836" x="313.537" y="101.582" class="st1"/><rect width="92.303" height="5.769" x="327.485" y="340.806" class="st2"/><rect width="92.303" height="5.769" x="327.485" y="351.128" class="st2"/><rect width="92.303" height="5.769" x="327.485" y="361.451" class="st2"/><rect width="92.303" height="5.769" x="327.485" y="309.838" class="st2"/><rect width="92.303" height="5.769" x="327.485" y="320.161" class="st2"/><rect width="92.303" height="5.769" x="327.485" y="330.483" class="st2"/><rect width="17.59" height="85.753" x="337.028" y="111.843" class="st2"/><rect width="17.59" height="85.753" x="364.569" y="111.843" class="st2"/><rect width="17.59" height="85.753" x="392.109" y="111.843" class="st2"/></g></g></svg>