<svg xmlns="http://www.w3.org/2000/svg" xmlns:xlink="http://www.w3.org/1999/xlink" x="0" y="0" version="1.1" viewBox="0 0 500 500" xml:space="preserve" style="enable-background:new 0 0 500 500"><style type="text/css">.st0{fill:#fff;stroke:#fff;stroke-width:10;stroke-miterlimit:10}.st1{fill:#a32f2f}.st2{fill:#d4d4d4}.st3{fill:#79b5b5}.st4{fill:none;stroke:#2e2e2e;stroke-width:5;stroke-miterlimit:10}.st5{fill:#3d3d3d}.st6{fill:#79b5b5;stroke:#1f2e2e;stroke-width:5;stroke-miterlimit:10}.st7{fill:#7a7a7a}.st8{fill:#e3652b}</style><g id="border"><path d="M440.5,183.3H281.4v-11.8H161.1v11.8H62.2v18v43v48.6h-2.7v17h2.7v11.5h83.3c4.3,4.4,10.3,7.1,16.9,7.1 c6.6,0,12.6-2.7,16.9-7.1h166.1c4.3,4.4,10.3,7.1,16.9,7.1c6.6,0,12.6-2.7,16.9-7.1h61.1V183.3z" class="st0"/></g><g xmlns:cc="http://creativecommons.org/ns#" xmlns:dc="http://purl.org/dc/elements/1.1/" xmlns:inkscape="http://www.inkscape.org/namespaces/inkscape" xmlns:rdf="http://www.w3.org/1999/02/22-rdf-syntax-ns#" xmlns:sodipodi="http://sodipodi.sourceforge.net/DTD/sodipodi-0.dtd" xmlns:svg="http://www.w3.org/2000/svg" id="object"><g><rect width="378.3" height="138" x="62.2" y="183.3" class="st1"/><rect width="120.3" height="11.8" x="161.1" y="171.6" class="st2"/><rect width="50.8" height="115.8" x="81.3" y="201.4" class="st3"/><rect width="25.4" height="115.8" x="81.3" y="201.4" class="st4"/><rect width="25.4" height="115.8" x="106.7" y="201.4" class="st4"/><circle cx="162.4" cy="304.7" r="23.7" class="st5"/><rect width="50.8" height="115.8" x="268.7" y="201.4" class="st3"/><rect width="25.4" height="115.8" x="268.7" y="201.4" class="st4"/><rect width="25.4" height="115.8" x="294.1" y="201.4" class="st4"/><rect width="98.5" height="43" x="330" y="201.4" class="st6"/><rect width="98.5" height="43" x="160" y="201.4" class="st6"/><circle cx="162.4" cy="304.7" r="11.8" class="st7"/><circle cx="362.4" cy="304.7" r="23.7" class="st5"/><circle cx="362.4" cy="304.7" r="11.8" class="st7"/><rect width="10" height="17" x="59.5" y="292.9" class="st8"/><rect width="7.3" height="43" x="62.2" y="201.4" class="st3" transform="matrix(-1 -1.224647e-16 1.224647e-16 -1 131.784 445.7462)"/></g></g></svg>