<svg xmlns="http://www.w3.org/2000/svg" xmlns:xlink="http://www.w3.org/1999/xlink" x="0" y="0" version="1.1" viewBox="0 0 500 500" xml:space="preserve" style="enable-background:new 0 0 500 500"><style type="text/css">.st0{fill:#fff;stroke:#fff;stroke-width:10;stroke-miterlimit:10}.st1{fill:#5c5c5c}.st2{fill:#3d3d3d}.st3{fill:#7a7a7a}.st4{fill:#b5b5b5}.st5{fill:#d4d4d4}.st6{fill:#79b5b5}.st7{fill:#969696}</style><g id="border"><path d="M459.4,308.6V180.1h-1.1h-95.7v-12.7H233.3v12.7H41.6h-1.1v8.2h1.1v120.3h48.9c-0.1,0.1-0.2,0.1-0.2,0.2H41.6 v7.6H85c-0.3,1-0.4,2.1-0.4,3.2c0,7.2,5.8,13,13,13s13-5.8,13-13c0-1.1-0.1-2.2-0.4-3.2h47.8c-0.3,1-0.4,2.1-0.4,3.2 c0,7.2,5.8,13,13,13c7.2,0,13-5.8,13-13c0-1.1-0.1-2.2-0.4-3.2h134.3c-0.3,1-0.4,2.1-0.4,3.2c0,7.2,5.8,13,13,13s13-5.8,13-13 c0-1.1-0.1-2.2-0.4-3.2h47.8c-0.3,1-0.4,2.1-0.4,3.2c0,7.2,5.8,13,13,13c7.2,0,13-5.8,13-13c0-1.1-0.1-2.2-0.4-3.2h43.4v-7.6h-48.6 c-0.1-0.1-0.2-0.1-0.2-0.2H459.4z M323.2,308.6c-0.1,0.1-0.2,0.1-0.2,0.2H178.2c-0.1-0.1-0.2-0.1-0.2-0.2H323.2z M104.8,308.6h58.8 c-0.1,0.1-0.2,0.1-0.2,0.2h-58.3C105,308.7,104.9,308.7,104.8,308.6z M396,308.8h-58.3c-0.1-0.1-0.2-0.1-0.2-0.2h58.8 C396.2,308.7,396.1,308.7,396,308.8z" class="st0"/></g><g xmlns:cc="http://creativecommons.org/ns#" xmlns:dc="http://purl.org/dc/elements/1.1/" xmlns:inkscape="http://www.inkscape.org/namespaces/inkscape" xmlns:rdf="http://www.w3.org/1999/02/22-rdf-syntax-ns#" xmlns:sodipodi="http://sodipodi.sourceforge.net/DTD/sodipodi-0.dtd" xmlns:svg="http://www.w3.org/2000/svg" id="object"><g><rect width="417.8" height="7.6" x="41.6" y="308.8" class="st1"/><g><circle cx="170.8" cy="319.5" r="13" class="st2"/><circle cx="170.8" cy="319.5" r="6.5" class="st3"/></g><g><circle cx="97.7" cy="319.5" r="13" class="st2"/><circle cx="97.7" cy="319.5" r="6.5" class="st3"/></g><g><circle cx="403.4" cy="319.5" r="13" class="st2"/><circle cx="403.4" cy="319.5" r="6.5" class="st3"/></g><g><circle cx="330.3" cy="319.5" r="13" class="st2"/><circle cx="330.3" cy="319.5" r="6.5" class="st3"/></g><rect width="417.8" height="128.5" x="41.6" y="180.1" class="st4"/><rect width="129.3" height="12.7" x="233.3" y="167.5" class="st5"/><rect width="83.3" height="41.3" x="123.6" y="204.5" class="st6"/><g><rect width="26" height="99.2" x="57.7" y="199.5" class="st7"/><rect width="16.9" height="41.3" x="62.9" y="204.5" class="st6"/><rect width="26" height="99.2" x="86.4" y="199.5" class="st7"/><rect width="16.9" height="41.3" x="90.2" y="204.5" class="st6"/></g><rect width="417.8" height="8.2" x="40.6" y="180.1" class="st7"/><g><rect width="26" height="99.2" x="219" y="199.5" class="st7"/><rect width="16.9" height="41.3" x="224.2" y="204.5" class="st6"/><rect width="26" height="99.2" x="247.6" y="199.5" class="st7"/><rect width="16.9" height="41.3" x="251.5" y="204.5" class="st6"/></g><rect width="83.3" height="41.3" x="284.9" y="204.5" class="st6"/><g><rect width="26" height="99.2" x="380.2" y="199.5" class="st7"/><rect width="16.9" height="41.3" x="385.5" y="204.5" class="st6"/><rect width="26" height="99.2" x="408.9" y="199.5" class="st7"/><rect width="16.9" height="41.3" x="412.8" y="204.5" class="st6"/></g></g></g></svg>